<svg version="1.2" xmlns="http://www.w3.org/2000/svg" viewBox="0 0 488 439" width="488" height="439">
	<style>
		.s0 { fill: #959487 } 
		.s1 { fill: #000000 } 
		.s2 { fill: #0068b3 } 
		.s3 { fill: #025985 } 
		.s4 { fill: #ea7d1d } 
	</style>
	<path class="s0" d="m164.49 162.8l-1.59 6.58c-18.71 56.13 26.29 85.19 78 80.43 6.27-0.58 13.24-2.2 19.46-1.26 2.57 8.12-20.68 14.16-26.46 15.84-24.31 7.09-40.55 7.22-65.36 1.95 25.27 25.89 40.76 30.13 74.62 15.55-4.65 4.98-14.21 8.31-20.92 9.36-14.74 2.3-33.13-1.71-44.37-11.83-5.53-4.98-9.02-10.56-15.48-15.25-3.09-4.12-4.96-5.28-9.09-8.16 0 8.04 0.27 18.02-0.78 25.81-1.58 21.34-11.2 35.28-24.76 50.8 1.39-27.29 4.68-43.42-7.32-68.21-2.01-2.89-3.21-4.56-5.6-7.15l-1.55 0.42c-1.22 3.74-1.78 5.29-3.65 8.73-3.57 11.4-15.52 17.93-27.04 14.77-11.51-3.17-18.45-14.89-15.7-26.51 2.75-11.63 14.2-18.99 25.91-16.66l1.8-1.16c-0.51-3.86-2.26-4.74-5.14-8.04-10.44-7-22.65-11.36-34.89-14.01-7.54-1.63-28.88 1.02-32.81-2.3l1-2.17c33.13-21.74 76.59-18.81 106.52 7.24 2.02-24.93 12.33-43.19 35.2-54.77z"/>
	<path class="s0" d="m109.64 266.41c-3.57 11.4-15.52 17.93-27.04 14.77-11.51-3.17-18.45-14.89-15.7-26.51 2.75-11.63 14.2-18.99 25.91-16.66 6.17 1.24 11.53 5.03 14.74 10.45 3.21 5.42 3.97 11.94 2.09 17.95z"/>
	<path class="s1" d="m260.36 248.55c2.57 8.12-20.68 14.16-26.46 15.84-24.31 7.09-40.55 7.22-65.36 1.95 25.27 25.89 40.76 30.13 74.62 15.55-4.65 4.98-14.21 8.31-20.92 9.36-14.74 2.3-33.13-1.71-44.37-11.83-5.53-4.98-9.02-10.56-15.48-15.25-3.09-4.12-4.96-5.28-9.09-8.16 0 8.04 0.27 18.02-0.78 25.81 0.29-14.38 0.7-19.78-4.96-33.2 16.05 10.91 28.78 17.76 48.66 17.9 24.38 0.16 43.67-4.97 64.14-17.97z"/>
	<path class="s1" d="m89.47 228.81c13.29 6.39 26.74 21.4 30.97 35.6-2.01-2.89-3.21-4.56-5.6-7.15l-1.55 0.42c-1.22 3.74-1.78 5.29-3.65 8.73 1.88-6.01 1.12-12.53-2.09-17.95-3.21-5.42-8.57-9.21-14.74-10.45l1.8-1.16c-0.51-3.86-2.26-4.74-5.14-8.04z"/>
	<path class="s2" d="m134.53 11.93c44.08 15.89 56.1 54.19 54.34 97.16 15.67-5.82 20.92-6.46 37.61-4.91 8.38 2.38 20.35 5.38 28.31 8.21-7.82 1.61-25.57 5.04-31.26 10.58-36.69 26.81-29.14 69.97-5.46 103.19 4.01 3.85 9.92 8.46 7.5 14.15l-2.56 0.79c-18.24-3.06-53.34-50.86-55.51-69.28-0.21-1.7-0.72-2.94-1.99-4.19l-2.61 1.75 1.59-6.58c1.72-2.66 2.49-7.91 2.27-11.24l-1.89-1.63c-10.32 15.23-66.22 28.84-75.13 16.81 1.31-5.48 14.05-8.36 19.97-10.78 13.53-5.54 23.25-16.78 31.98-28.08 1.34-2.81 2.66-5.01 2.71-8.13-3.15-1.94-9.48 0.7-18.11-1.06-33.57-12.29-15.84-57.56 20.36-40.19 3.42 2.91 5.24 7.9 9.97 5.88 1.67-3.46 1.26-15.55 1.33-20.16-2.98-16.73-5.79-24.99-15.23-39.57-2.26-3.48-6.39-9.25-8.19-12.72z"/>
	<path class="s2" d="m126.29 118.69c-33.57-12.29-15.84-57.56 20.36-40.19 3.47 5.63 4.75 7.6 6.84 13.97-3.72 19.29-6.64 25.15-27.2 26.22z"/>
	<path class="s3" d="m164.87 149.93c1.94-3.5 0.88-2.66 4.22-4.33l1.96 0.63c0.09 0.59-2.03 8.06-2.24 13.64-0.7 19.24 26.82 66.03 44.44 70.95 2.51-0.62 4.21-1.96 4.82-4.66 4.01 3.85 9.92 8.46 7.5 14.15l-2.56 0.79c-18.24-3.06-53.34-50.86-55.51-69.28-0.21-1.7-0.72-2.94-1.99-4.19l-2.61 1.75 1.59-6.58c1.72-2.66 2.49-7.91 2.27-11.24z"/>
	<path class="s1" d="m157.95 64.22c4.66 18.65-2.37 49.91-16.26 63.66 1.34-2.81 2.66-5.01 2.71-8.13-3.15-1.94-9.48 0.7-18.11-1.06 20.56-1.07 23.48-6.93 27.2-26.22-2.09-6.37-3.37-8.34-6.84-13.97 3.42 2.91 5.24 7.9 9.97 5.88 1.67-3.46 1.26-15.55 1.33-20.16z"/>
	<path class="s4" d="m333.83 58.25c14.28-10.34 20.29-20.92 28.99-35.87 1.09-1.87 2.6-3.52 4.76-3.55 2.35 4.77-0.03 21.41-1.41 26.69-7.71 29.41-29.42 52.89-58.35 61.72 21.45 14.47 29.85 32.69 31.58 58.55l-3.72-1.08c-3.65-4.52-8.35-10.6-12.55-14.2-34.6-29.67-78.26-4.01-95.22 31.74-2.85 6.01-7.31 18.46-10.95 22.43l-1.42-0.39c-6.47-20.67 12.95-59.99 25.33-76.4 1.9-2.37 3.11-3.64 4.1-6.55l-1.38-1.84c-4.81-1.68-14.99 1.92-20.06 3.47 5.69-5.54 23.44-8.97 31.26-10.58-7.96-2.83-19.93-5.83-28.31-8.21 8.18-0.6 24.27 3.44 32.75 5.39-6.8-5.45-15.25-9.04-20.62-15.75-14.7-11.19-23.76-28.25-28.88-45.63 6.91 4.46 16.12 11.72 23.3 16.75 20.6 8.46 24.25 9.14 45.82 8.79-2.6-4.22-3.4-6.19-5.2-10.85-5.27-8.58-4.07-19.65 2.94-26.89 7-7.24 18.02-8.82 26.76-3.82 16.15 7.56 14.89 23.31 8.85 37.29 7.24-3.7 14.46-7.37 21.63-11.21z"/>
	<path class="s4" d="m273.65 62.88c-5.27-8.58-4.07-19.65 2.94-26.89 7-7.24 18.02-8.82 26.76-3.82 6.92 3.94 11.17 11.31 11.12 19.27-0.03 5.9-2.42 11.54-6.63 15.66-4.22 4.12-9.91 6.39-15.8 6.28-7.52-0.13-14.45-4.09-18.39-10.5z"/>
	<path class="s1" d="m303.35 32.17c16.15 7.56 14.89 23.31 8.85 37.29 7.24-3.7 14.46-7.37 21.63-11.21-13.78 13.35-36.77 20.33-55.75 20.03-12.03-0.19-36.38-5.27-45.05-13.34 20.6 8.46 24.25 9.14 45.82 8.79-2.6-4.22-3.4-6.19-5.2-10.85 3.94 6.41 10.87 10.37 18.39 10.5 5.89 0.11 11.58-2.16 15.8-6.28 4.21-4.12 6.6-9.76 6.63-15.66 0.05-7.96-4.2-15.33-11.12-19.27z"/>
	<path class="s1" d="m238.61 93.82c11.92 7.53 19.64 12.8 33.99 14.67-13.54 6.09-20.17 10.06-31.73 19.4 1.9-2.37 3.11-3.64 4.1-6.55l-1.38-1.84c-4.81-1.68-14.99 1.92-20.06 3.47 5.69-5.54 23.44-8.97 31.26-10.58-7.96-2.83-19.93-5.83-28.31-8.21 8.18-0.6 24.27 3.44 32.75 5.39-6.8-5.45-15.25-9.04-20.62-15.75z"/>
	<path class="s0" d="m373.3 98.42c-1.27 25.64-3.93 38.91 6.44 63.1 1.96 3.24 6.08 11.31 9.11 12.41l1.52-1.18 0.7-5.74c1.23-10.92 10.29-19.29 21.28-19.64 10.98-0.35 20.56 7.41 22.48 18.24 1.93 10.83-4.38 21.43-14.81 24.89-5.29 2.37-11.88 2.15-13.09 4.09 2.16 3.17 3.72 4.25 6.7 6.65 17.61 11.39 33.74 14.24 54.75 15.1 3.48 0.14 10.05-0.93 11.54 1.62-12.59 17.79-68.16 17.53-85.69 8.54-3.74-1.92-17.77-11.17-20.02-11.01-2.48 4.17-4.11 11.99-5.89 17.07-3.72 10.56-20.89 32.25-31.79 34.72l1.06-5.84c6.05-13.78 9.5-28.82 3.49-43.7-14.84-36.77-50.74-38.98-85.26-38.26-6.31 0.13-8.98 4.32-15.24 1.38l-0.5-1.77c6.75-10.54 64.19-21.64 78.3-16.28 3.42 1.3 13.93 2.68 17.3 1.9l3.72 1.08c0.54 3.28 5.07 6.92 8.52 6.68 5.13-6.33-7.29-40.73 25.38-74.05z"/>
	<path class="s0" d="m391.07 167.01c1.23-10.92 10.29-19.29 21.28-19.64 10.98-0.35 20.56 7.41 22.48 18.24 1.93 10.83-4.38 21.43-14.81 24.89-7.16 2.38-15.04 0.94-20.9-3.82-5.86-4.75-8.89-12.16-8.05-19.67z"/>
	<path class="s1" d="m379.74 161.52c1.96 3.24 6.08 11.31 9.11 12.41l1.52-1.18 0.7-5.74c-0.84 7.51 2.19 14.92 8.05 19.67 5.86 4.76 13.74 6.2 20.9 3.82-5.29 2.37-11.88 2.15-13.09 4.09 2.16 3.17 3.72 4.25 6.7 6.65-16.24-6.58-28.09-23.78-33.89-39.72z"/>
	<path class="s2" d="m281.61 303.76c33.55-28.15 24.27-74.63-1.76-105.12-2.89-3.38-4.58-5.56-4.75-10.05l1.32-1.05c8.13 1.19 34.65 27.09 40.47 35.04 4.38 5.98 10.75 19.79 14.47 26.79 2.69 5.06 0.75 8.96 4.41 12.92l1.82-0.85-1.06 5.84c-2.37 3.88-2.3 7.12-2.62 11.6 18.28-11.93 33.33-19.18 55.61-19.13 7.03 0.01 14.75-0.83 21.45 1.88l0.98 1.61c-21.45 10.41-35.36 15.97-50.11 35.63-21.27 28.35-22.58 69.18-6.57 100.18 3.12 4.26 7.07 8.75 7.72 13.92l-0.63 2.66c-5.01 0.87-9.26-3.52-13.18-6.55-31.78-27.44-38.21-48.33-36.27-89.55-8.32 4.28-13.14 5.48-22.39 6.44-23.06-4.3-18.94-0.24-43.69-11.05 13.53-2.34 23.7-1.53 34.78-11.16z"/>
	<path class="s3" d="m355.27 399.05c3.12 4.26 7.07 8.75 7.72 13.92l-0.63 2.66c-5.01 0.87-9.26-3.52-13.18-6.55 4.98-4.16 5.55-4.26 6.09-10.03z"/>
	<path class="s4" d="m243.16 281.89c11.33-8.13 14.82-11.53 23.04-22.62 5.03-6.8 15.5-34.76 19.63-35.98 7.46 7.73-8.63 52.22-14.46 62.45 0.21 5.58-14.03 21.34-18.5 25.64 10.9-2.23 18.28-3.42 28.74-7.62-11.08 9.63-21.25 8.82-34.78 11.16 24.75 10.81 20.63 6.75 43.69 11.05-15.61 2.04-38.09-5.21-53.82-7.63 11.42 5.75 24.92 10.25 31.96 21.32 6.01 6.04 23.21 28.18 21.35 36.82-3.94 1.85-11.36-4.91-15.01-7.67-39.19-29.62-100.2-17.68-127.61 22.36-4.58 6.68-7.23 14.07-12.07 20.58l-1.55 0.17c-3.72-5.37 2.71-33.22 5.19-39.34 10.23-25.34 28.91-40.85 53.36-51.79-19.54-12.52-28.88-33.83-29.93-56.62 6.46 4.69 9.95 10.27 15.48 15.25 11.24 10.12 29.63 14.13 44.37 11.83 6.71-1.05 16.27-4.38 20.92-9.36z"/>
	<path class="s1" d="m228.24 319.8c14.54-5.46 24.12-10.06 33.92-22.72 2.28-2.95 6.63-9.05 9.21-11.34 0.21 5.58-14.03 21.34-18.5 25.64 10.9-2.23 18.28-3.42 28.74-7.62-11.08 9.63-21.25 8.82-34.78 11.16 24.75 10.81 20.63 6.75 43.69 11.05-15.61 2.04-38.09-5.21-53.82-7.63 11.42 5.75 24.92 10.25 31.96 21.32-15.55-11.19-21.66-15.82-40.42-19.86z"/>
	<path class="s2" d="m366.83 317.41c12.07-3.6 24.76 3.33 28.27 15.44 3.5 12.11-3.52 24.76-15.64 28.18-12 3.38-24.48-3.56-27.95-15.54-3.47-11.99 3.37-24.53 15.32-28.08z"/>
	<path class="s4" d="m205.65 367.22c12.31-1.88 23.79 6.61 25.6 18.94 1.82 12.32-6.74 23.77-19.07 25.51-12.22 1.72-23.54-6.75-25.34-18.97-1.8-12.23 6.61-23.61 18.81-25.48z"/>
</svg>