<?xml version="1.0" encoding="utf-8" ?><svg xmlns="http://www.w3.org/2000/svg" xmlns:xlink="http://www.w3.org/1999/xlink" width="488" height="605" viewBox="0 0 488 605"><path fill="#959487" transform="matrix(4.31858 0 0 4.32143 -0.000488281 0)" d="M38.0887 58.2687L37.72 59.7899C33.3888 72.7789 43.8079 79.5027 55.7812 78.4016C57.2346 78.2679 58.8473 77.8941 60.2891 78.1113C60.883 79.99 55.4996 81.3873 54.1613 81.7773C48.5323 83.4175 44.7707 83.4469 39.0279 82.2263C44.879 88.218 48.4662 89.1997 56.3051 85.826C55.2294 86.9774 53.0141 87.7489 51.4606 87.9914C48.0489 88.5241 43.7907 87.5968 41.1875 85.2543C39.9064 84.1015 39.0978 82.8115 37.6021 81.7245C36.8874 80.7713 36.4533 80.5043 35.4974 79.8381C35.4969 81.6973 35.5605 84.0062 35.3169 85.8096C34.9525 90.7481 32.7231 93.9742 29.5849 97.5659C29.9058 91.2501 30.6684 87.5181 27.8886 81.7805C27.4234 81.1121 27.1464 80.7245 26.5932 80.1274L26.2343 80.223C25.9503 81.0881 25.8219 81.4465 25.3878 82.2441C24.5611 84.8826 21.7937 86.3928 19.1275 85.6606C16.4612 84.9283 14.8535 82.2165 15.4904 79.5259C16.1272 76.8353 18.7801 75.132 21.4917 75.6727L21.9067 75.4023C21.7902 74.5096 21.3837 74.3058 20.718 73.5421C18.3011 71.924 15.4732 70.9131 12.6389 70.3011C10.8916 69.9238 5.95163 70.5357 5.04053 69.7681L5.27327 69.2663C12.9451 64.2361 23.0072 64.9133 29.9385 70.9416C30.4053 65.1738 32.7925 60.9473 38.0887 58.2687Z"/><path fill="#959487" transform="matrix(4.31858 0 0 4.32143 -0.000488281 0)" d="M25.3878 82.2441C24.5611 84.8826 21.7937 86.3928 19.1275 85.6606C16.4612 84.9283 14.8535 82.2165 15.4904 79.5259C16.1272 76.8353 18.7801 75.132 21.4917 75.6727C22.9208 75.9577 24.1615 76.8364 24.9047 78.0899C25.6478 79.3434 25.8235 80.8536 25.3878 82.2441Z"/><path transform="matrix(4.31858 0 0 4.32143 -0.000488281 0)" d="M60.2891 78.1113C60.883 79.99 55.4996 81.3873 54.1613 81.7773C48.5323 83.4175 44.7707 83.4469 39.0279 82.2263C44.879 88.218 48.4662 89.1997 56.3051 85.826C55.2294 86.9774 53.0141 87.7489 51.4606 87.9914C48.0489 88.5241 43.7907 87.5968 41.1875 85.2543C39.9064 84.1015 39.0978 82.8115 37.6021 81.7245C36.8874 80.7713 36.4533 80.5043 35.4974 79.8381C35.4969 81.6973 35.5605 84.0062 35.3169 85.8096C35.3839 82.4821 35.4802 81.2323 34.1678 78.1268C37.8848 80.6527 40.8323 82.2377 45.4375 82.2683C51.0807 82.3058 55.5494 81.1184 60.2891 78.1113Z"/><path transform="matrix(4.31858 0 0 4.32143 -0.000488281 0)" d="M20.718 73.5421C23.7941 75.0214 26.9084 78.4937 27.8886 81.7805C27.4234 81.1121 27.1464 80.7245 26.5932 80.1274L26.2343 80.223C25.9503 81.0881 25.8219 81.4465 25.3878 82.2441C25.8235 80.8536 25.6478 79.3434 24.9047 78.0899C24.1615 76.8364 22.9208 75.9577 21.4917 75.6727L21.9067 75.4023C21.7902 74.5096 21.3837 74.3058 20.718 73.5421Z"/><path fill="#0068B3" transform="matrix(4.31858 0 0 4.32143 -0.000488281 0)" d="M31.1516 23.3564C41.3585 27.0331 44.1417 35.8955 43.7345 45.8388C47.3622 44.4928 48.5789 44.344 52.4431 44.7031C54.3841 45.2538 57.1566 45.9488 58.9992 46.6029C57.1879 46.9744 53.0785 47.7695 51.7604 49.0519C43.2642 55.2545 45.0127 65.2434 50.4961 72.9306C51.4252 73.8213 52.7921 74.8877 52.2325 76.2044L51.64 76.3857C47.4156 75.6796 39.2888 64.6168 38.7851 60.3558C38.7385 59.9617 38.6189 59.6752 38.325 59.3855L37.72 59.7899L38.0887 58.2687C38.4873 57.6524 38.6658 56.4377 38.615 55.6672L38.1779 55.289C35.7872 58.8129 22.8423 61.9644 20.7792 59.1796C21.0844 57.9111 24.0343 57.2449 25.4048 56.6841C28.5381 55.4018 30.7879 52.8028 32.8092 50.1872C33.1192 49.5372 33.4252 49.0277 33.4381 48.306C32.7068 47.8564 31.243 48.4677 29.2431 48.0616C21.4699 45.2176 25.5755 34.7403 33.9569 38.7609C34.7499 39.4347 35.1703 40.588 36.2656 40.1219C36.6528 39.3207 36.5588 36.5216 36.5738 35.4567C35.8849 31.5842 35.2337 29.6734 33.0481 26.2999C32.5252 25.4928 31.5679 24.1585 31.1516 23.3564Z"/><path fill="#0068B3" transform="matrix(4.31858 0 0 4.32143 -0.000488281 0)" d="M29.2431 48.0616C21.4699 45.2176 25.5755 34.7403 33.9569 38.7609C34.7626 40.0631 35.0575 40.5201 35.5417 41.9939C34.6794 46.4564 34.0036 47.814 29.2431 48.0616Z"/><path fill="#025985" transform="matrix(4.31858 0 0 4.32143 -0.000488281 0)" d="M38.1779 55.289C38.6266 54.4787 38.3805 54.6734 39.1531 54.2882L39.6089 54.4323C39.6298 54.5705 39.137 56.2985 39.0901 57.5907C38.9283 62.0415 45.3003 72.8688 49.3801 74.0072C49.9618 73.8634 50.3545 73.555 50.4961 72.9306C51.4252 73.8213 52.7921 74.8877 52.2325 76.2044L51.64 76.3857C47.4156 75.6796 39.2888 64.6168 38.7851 60.3558C38.7385 59.9617 38.6189 59.6752 38.325 59.3855L37.72 59.7899L38.0887 58.2687C38.4873 57.6524 38.6658 56.4377 38.615 55.6672L38.1779 55.289Z"/><path transform="matrix(4.31858 0 0 4.32143 -0.000488281 0)" d="M36.5738 35.4567C37.6531 39.7717 36.0268 47.0062 32.8092 50.1872C33.1192 49.5372 33.4252 49.0277 33.4381 48.306C32.7068 47.8564 31.243 48.4677 29.2431 48.0616C34.0036 47.814 34.6794 46.4564 35.5417 41.9939C35.0575 40.5201 34.7626 40.0631 33.9569 38.7609C34.7499 39.4347 35.1703 40.588 36.2656 40.1219C36.6528 39.3207 36.5588 36.5216 36.5738 35.4567Z"/><path fill="#EA7D1D" transform="matrix(4.31858 0 0 4.32143 -0.000488281 0)" d="M77.3 34.0733C80.6065 31.6827 81.9986 29.2345 84.0144 25.7748C84.2665 25.342 84.6155 24.9595 85.1152 24.9524C85.6596 26.0565 85.1099 29.9067 84.7895 31.1283C83.0046 37.9337 77.9765 43.3669 71.2772 45.4108C76.2445 48.7588 78.1909 52.975 78.5907 58.9599L77.7289 58.7108C76.8851 57.6634 75.7951 56.2562 74.8222 55.4227C66.8107 48.559 56.7013 54.4948 52.7736 62.7696C52.1137 64.1598 51.0806 67.0401 50.2381 67.9591L49.9104 67.868C48.413 63.0846 52.9088 53.9874 55.7759 50.189C56.2143 49.6399 56.4951 49.348 56.7257 48.6743L56.4044 48.2483C55.2921 47.8594 52.9346 48.6928 51.7604 49.0519C53.0785 47.7695 57.1879 46.9744 58.9992 46.6029C57.1566 45.9488 54.3841 45.2538 52.4431 44.7031C54.3379 44.5629 58.064 45.4982 60.0264 45.9502C58.4533 44.6884 56.4954 43.8577 55.2531 42.3053C51.8474 39.7169 49.7508 35.7693 48.5641 31.7464C50.1656 32.7776 52.2976 34.4584 53.9593 35.6224C58.7294 37.581 59.5744 37.7364 64.5707 37.6574C63.9686 36.6795 63.782 36.2236 63.3664 35.1463C62.1448 33.1601 62.4245 30.5985 64.0461 28.9227C65.6676 27.2469 68.2186 26.883 70.244 28.0386C73.9818 29.7887 73.6914 33.4332 72.2915 36.669C73.9682 35.8131 75.6408 34.9634 77.3 34.0733Z"/><path fill="#EA7D1D" transform="matrix(4.31858 0 0 4.32143 -0.000488281 0)" d="M63.3664 35.1463C62.1448 33.1601 62.4245 30.5985 64.0461 28.9227C65.6676 27.2469 68.2186 26.883 70.244 28.0386C71.8445 28.9518 72.8285 30.6567 72.8188 32.4993C72.8115 33.864 72.2581 35.1691 71.2819 36.123C70.3058 37.0768 68.9884 37.6001 67.6238 37.5759C65.8832 37.545 64.2784 36.6292 63.3664 35.1463Z"/><path transform="matrix(4.31858 0 0 4.32143 -0.000488281 0)" d="M70.244 28.0386C73.9818 29.7887 73.6914 33.4332 72.2915 36.669C73.9682 35.8131 75.6408 34.9634 77.3 34.0733C74.1108 37.1631 68.7868 38.7795 64.3909 38.7092C61.6056 38.6646 55.9687 37.4901 53.9593 35.6224C58.7294 37.581 59.5744 37.7364 64.5707 37.6574C63.9686 36.6795 63.782 36.2236 63.3664 35.1463C64.2784 36.6292 65.8832 37.545 67.6238 37.5759C68.9884 37.6001 70.3058 37.0768 71.2819 36.123C72.2581 35.1691 72.8115 33.864 72.8188 32.4993C72.8285 30.6567 71.8445 28.9518 70.244 28.0386Z"/><path transform="matrix(4.31858 0 0 4.32143 -0.000488281 0)" d="M55.2531 42.3053C58.0122 44.048 59.8006 45.2676 63.1221 45.6998C59.9878 47.1086 58.4511 48.028 55.7759 50.189C56.2143 49.6399 56.4951 49.348 56.7257 48.6743L56.4044 48.2483C55.2921 47.8594 52.9346 48.6928 51.7604 49.0519C53.0785 47.7695 57.1879 46.9744 58.9992 46.6029C57.1566 45.9488 54.3841 45.2538 52.4431 44.7031C54.3379 44.5629 58.064 45.4982 60.0264 45.9502C58.4533 44.6884 56.4954 43.8577 55.2531 42.3053Z"/><path fill="#959487" transform="matrix(4.31858 0 0 4.32143 -0.000488281 0)" d="M86.4417 43.3691C86.1461 49.304 85.5302 52.374 87.9312 57.9714C88.3864 58.7218 89.3396 60.5878 90.0418 60.8423L90.3923 60.5691L90.5564 59.2428C90.8412 56.7142 92.9391 54.7781 95.4824 54.6966C98.0256 54.6151 100.243 56.413 100.689 58.9182C101.135 61.4234 99.6746 63.8762 97.2595 64.6776C96.033 65.2253 94.508 65.1748 94.2287 65.6234C94.7281 66.3573 95.0886 66.6072 95.7795 67.1641C99.857 69.7996 103.593 70.4575 108.456 70.657C109.262 70.6901 110.784 70.4426 111.129 71.032C108.214 75.1479 95.3467 75.0897 91.288 73.0078C90.4206 72.5629 87.1731 70.4238 86.6503 70.4599C86.0776 71.4259 85.6995 73.2361 85.2867 74.4097C84.4269 76.8547 80.4495 81.8728 77.9265 82.4445L78.1721 81.0942C79.5715 77.9057 80.3709 74.4239 78.9804 70.9806C75.5441 62.4716 67.2304 61.9606 59.2373 62.128C57.775 62.1586 57.1575 63.127 55.7083 62.4476L55.5928 62.0378C57.1561 59.5975 70.4556 57.0308 73.7223 58.2699C74.5163 58.5711 76.9501 58.8893 77.7289 58.7108L78.5907 58.9599C78.715 59.7194 79.7653 60.561 80.5625 60.5046C81.7517 59.0401 78.8761 51.0797 86.4417 43.3691Z"/><path fill="#959487" transform="matrix(4.31858 0 0 4.32143 -0.000488281 0)" d="M90.5564 59.2428C90.8412 56.7142 92.9391 54.7781 95.4824 54.6966C98.0256 54.6151 100.243 56.413 100.689 58.9182C101.135 61.4234 99.6746 63.8762 97.2595 64.6776C95.6015 65.2278 93.7774 64.895 92.4205 63.7948C91.0635 62.6946 90.3609 60.9787 90.5564 59.2428Z"/><path transform="matrix(4.31858 0 0 4.32143 -0.000488281 0)" d="M87.9312 57.9714C88.3864 58.7218 89.3396 60.5878 90.0418 60.8423L90.3923 60.5691L90.5564 59.2428C90.3609 60.9787 91.0635 62.6946 92.4205 63.7948C93.7774 64.895 95.6015 65.2278 97.2595 64.6776C96.033 65.2253 94.508 65.1748 94.2287 65.6234C94.7281 66.3573 95.0886 66.6072 95.7795 67.1641C92.0192 65.6407 89.2749 61.6609 87.9312 57.9714Z"/><path fill="#0068B3" transform="matrix(4.31858 0 0 4.32143 -0.000488281 0)" d="M65.2082 90.8856C72.9787 84.373 70.8298 73.6157 64.8007 66.5622C64.1314 65.7792 63.7411 65.2754 63.7017 64.2354L64.0069 63.9938C65.89 64.2676 72.0296 70.2617 73.3779 72.1016C74.3921 73.4854 75.8681 76.6807 76.7295 78.3008C77.3515 79.4707 76.9021 80.3748 77.751 81.2905L78.1721 81.0942L77.9265 82.4445C77.3769 83.3432 77.3935 84.0931 77.3206 85.1285C81.5516 82.3697 85.0378 80.6916 90.1959 80.7019C91.8234 80.7052 93.611 80.5106 95.1628 81.1365L95.3906 81.511C90.4232 83.9191 87.203 85.2059 83.7869 89.7553C78.8618 96.3145 78.5586 105.764 82.2654 112.938C82.9881 113.924 83.9034 114.963 84.0525 116.159L83.9065 116.773C82.7476 116.975 81.7627 115.96 80.8551 115.257C73.4972 108.909 72.0065 104.075 72.4578 94.5355C70.5308 95.5262 69.414 95.8045 67.2718 96.025C61.933 95.0299 62.8875 95.9698 57.1549 93.469C60.2873 92.9281 62.6424 93.1148 65.2082 90.8856Z"/><path fill="#025985" transform="matrix(4.31858 0 0 4.32143 -0.000488281 0)" d="M82.2654 112.938C82.9881 113.924 83.9034 114.963 84.0525 116.159L83.9065 116.773C82.7476 116.975 81.7627 115.96 80.8551 115.257C82.0091 114.295 82.1396 114.273 82.2654 112.938Z"/><path fill="#EA7D1D" transform="matrix(4.31858 0 0 4.32143 -0.000488281 0)" d="M56.3051 85.826C58.9282 83.9438 59.7381 83.1588 61.6406 80.5904C62.8049 79.0186 65.2289 72.5468 66.1862 72.2661C67.9133 74.0534 64.1886 84.3494 62.8371 86.717C62.8869 88.008 59.5889 91.6556 58.5537 92.6495C61.0771 92.1333 62.7879 91.8591 65.2082 90.8856C62.6424 93.1148 60.2873 92.9281 57.1549 93.469C62.8875 95.9698 61.933 95.0299 67.2718 96.025C63.6577 96.499 58.4532 94.8196 54.8089 94.2596C57.4552 95.5904 60.5794 96.6323 62.2098 99.1934C63.603 100.591 67.5859 105.716 67.1544 107.715C66.2419 108.142 64.5234 106.579 63.6775 105.94C54.6034 99.0853 40.4768 101.849 34.129 111.113C33.0694 112.66 32.4551 114.37 31.3335 115.876L30.975 115.915C30.1132 114.673 31.6035 108.229 32.1763 106.812C34.547 100.948 38.8727 97.36 44.5324 94.8267C40.0097 91.9293 37.8465 86.9994 37.6021 81.7245C39.0978 82.8115 39.9064 84.1015 41.1875 85.2543C43.7907 87.5968 48.0489 88.5241 51.4606 87.9914C53.0141 87.7489 55.2294 86.9774 56.3051 85.826Z"/><path transform="matrix(4.31858 0 0 4.32143 -0.000488281 0)" d="M52.8503 94.5992C56.218 93.3353 58.4357 92.2696 60.7045 89.3413C61.233 88.6593 62.2406 87.2457 62.8371 86.717C62.8869 88.008 59.5889 91.6556 58.5537 92.6495C61.0771 92.1333 62.7879 91.8591 65.2082 90.8856C62.6424 93.1148 60.2873 92.9281 57.1549 93.469C62.8875 95.9698 61.933 95.0299 67.2718 96.025C63.6577 96.499 58.4532 94.8196 54.8089 94.2596C57.4552 95.5904 60.5794 96.6323 62.2098 99.1934C58.6102 96.6047 57.1959 95.5327 52.8503 94.5992Z"/><path fill="#0068B3" transform="matrix(4.31858 0 0 4.32143 -0.000488281 0)" d="M84.9422 94.0442C87.738 93.2121 90.6766 94.8166 91.4883 97.6184C92.3 100.42 90.6741 103.347 87.8664 104.138C85.0875 104.921 82.1973 103.316 81.3939 100.543C80.5905 97.7696 82.175 94.8678 84.9422 94.0442Z"/><path fill="#EA7D1D" transform="matrix(4.31858 0 0 4.32143 -0.000488281 0)" d="M47.6201 105.572C50.4693 105.136 53.1293 107.102 53.5488 109.954C53.9683 112.805 51.9872 115.454 49.1331 115.857C46.3024 116.256 43.6803 114.295 43.2642 111.467C42.8481 108.638 44.7942 106.005 47.6201 105.572Z"/></svg>